<svg width="800" height="600" xmlns="http://www.w3.org/2000/svg">
 <g>
  <title>Layer 1</title>
  <path fill="none" stroke="#000" opacity="NaN" d="m-453.63411,-377.87599l18.0907,8.3969l-18.0907,-8.3969z" id="svg_13"/>
  <line fill="none" x1="620" y1="304.41326" x2="713" y2="304.90239" id="svg_22" stroke="#000" stroke-width="20"/>
  <path stroke="#000" fill="none" stroke-width="20" opacity="NaN" d="m232,122.90423c1.9304,-3.08261 239.36945,-12.33043 313.68982,174.16734" id="svg_51"/>
  <path stroke="#000" fill="none" stroke-width="20" opacity="NaN" d="m232.96529,472.63318c1.9361,3.0594 240.07629,12.23756 314.6161,-172.85542" id="svg_52"/>
  <g stroke="null" id="svg_14">
   <path stroke="#000" fill="#fff" stroke-width="20" opacity="NaN" d="m313.66862,283.78358" id="svg_5"/>
   <path stroke="#000" id="svg_2" d="m220,121.61329c0,0 74.85058,62.76785 88,184.99999" opacity="NaN" stroke-width="20" fill="#fff"/>
   <path stroke="#000" id="svg_4" d="m220.99999,472.61326c0,0 74,-57.67857 87,-170.00001" opacity="NaN" stroke-width="20" fill="#fff"/>
  </g>
  <g id="svg_18">
   <path fill="#fff" stroke="#000" stroke-width="20" opacity="NaN" d="m252.66862,284.17029" id="svg_15"/>
   <path stroke="#000" id="svg_16" d="m159,122c0,0 74.85058,62.76785 88,184.99999" opacity="NaN" stroke-width="20" fill="#fff"/>
   <path stroke="#000" id="svg_17" d="m159.99999,472.99997c0,0 74,-57.67857 87,-170.00001" opacity="NaN" stroke-width="20" fill="#fff"/>
  </g>
  <line fill="none" x1="87" y1="227.23715" x2="221" y2="227.23715" id="svg_1" stroke="#000" stroke-width="20"/>
  <line fill="none" opacity="NaN" x1="87" y1="390.23436" x2="221" y2="390.23436" id="svg_3" stroke="#000" stroke-width="20"/>
  <ellipse ry="35" rx="35" id="svg_6" cy="304" cx="587" stroke-width="20" stroke="#000" fill="none"/>
 </g>

</svg>