<?xml version="1.0" standalone="no"?>
<!DOCTYPE svg PUBLIC "-//W3C//DTD SVG 20010904//EN"
 "http://www.w3.org/TR/2001/REC-SVG-20010904/DTD/svg10.dtd">
<svg version="1.0" xmlns="http://www.w3.org/2000/svg"
 width="218.000000pt" height="128.000000pt" viewBox="0 0 218.000000 128.000000"
 preserveAspectRatio="xMidYMid meet">

<g transform="translate(0.000000,128.000000) scale(0.100000,-0.100000)"
fill="#000000" stroke="none">
<path d="M580 1085 l0 -115 -185 0 c-178 0 -185 -1 -185 -20 0 -19 7 -20 185
-20 l185 0 0 -300 0 -300 -185 0 c-158 0 -185 -2 -185 -15 0 -13 27 -15 185
-15 l184 0 3 -117 3 -118 225 1 c195 1 235 4 303 22 263 71 443 252 482 485
l6 37 184 0 c178 0 185 1 185 20 0 19 -7 20 -185 20 l-184 0 -6 38 c-32 208
-183 379 -402 459 -116 42 -203 53 -415 53 l-198 0 0 -115z m525 51 c297 -82
489 -328 448 -572 -27 -157 -142 -302 -303 -381 -137 -67 -177 -75 -417 -80
l-213 -5 0 532 0 532 213 -5 c155 -3 228 -8 272 -21z" stroke="black" stroke-width="30" />
</g>
</svg>
