<?xml version="1.0" standalone="no"?>
<!DOCTYPE svg PUBLIC "-//W3C//DTD SVG 20010904//EN"
 "http://www.w3.org/TR/2001/REC-SVG-20010904/DTD/svg10.dtd">
<svg version="1.0" xmlns="http://www.w3.org/2000/svg"
 width="647.000000pt" height="421.000000pt" viewBox="0 0 647.000000 421.000000"
 preserveAspectRatio="xMidYMid meet">

<g transform="translate(0.000000,421.000000) scale(0.100000,-0.100000)"
fill="#000000" stroke="none">
<path d="M1878 3268 l-3 -323 -523 -3 -523 -2 3 -53 3 -52 523 -3 522 -2 0
-820 c0 -805 0 -819 -20 -830 -13 -7 -188 -10 -522 -10 l-503 1 0 -46 0 -46
505 0 c405 1 508 -2 522 -13 16 -12 18 -43 20 -327 l3 -314 525 0 c545 0 606
3 820 46 428 87 822 302 1088 595 107 117 257 361 286 464 4 14 16 48 27 75
18 45 55 214 64 290 2 17 4 32 5 35 0 3 7 -8 14 -25 33 -74 125 -135 208 -137
84 -3 182 59 221 140 l22 44 285 2 285 1 0 50 0 50 -290 5 -289 5 -10 33 c-5
19 -28 53 -52 77 -82 85 -212 94 -307 21 -23 -17 -52 -50 -64 -71 -13 -22 -23
-38 -24 -35 0 3 -2 19 -4 35 -8 75 -59 293 -76 327 -10 20 -19 42 -19 48 0 16
-48 113 -96 195 -63 108 -136 201 -242 308 -280 284 -650 471 -1092 551 -147
27 -360 36 -832 36 l-458 0 -2 -322z m1172 197 c291 -47 479 -106 710 -226
283 -147 526 -374 667 -624 46 -83 111 -240 117 -282 2 -15 12 -53 22 -83 27
-78 28 -399 1 -477 -9 -29 -19 -65 -21 -80 -15 -98 -119 -316 -207 -433 -122
-162 -333 -351 -489 -439 -47 -26 -259 -131 -266 -131 -3 0 -20 -6 -37 -14
-89 -40 -298 -95 -462 -122 -95 -16 -175 -18 -605 -19 l-495 0 -3 1460 c-1
803 0 1466 3 1473 7 19 938 17 1065 -3z m1932 -1341 c52 -25 73 -61 72 -123 0
-48 -4 -57 -36 -87 -72 -66 -160 -50 -206 37 -21 38 -22 49 -13 80 6 21 29 53
51 73 45 40 79 46 132 20z" stroke="black" stroke-width="30" />
</g>
</svg>
