<?xml version="1.0" standalone="no"?>
<!DOCTYPE svg PUBLIC "-//W3C//DTD SVG 20010904//EN"
 "http://www.w3.org/TR/2001/REC-SVG-20010904/DTD/svg10.dtd">
<svg version="1.0" xmlns="http://www.w3.org/2000/svg"
 width="233.000000pt" height="148.000000pt" viewBox="0 0 233.000000 148.000000"
 preserveAspectRatio="xMidYMid meet">

<g transform="translate(0.000000,148.000000) scale(0.100000,-0.100000)"
fill="#000000" stroke="none">
<path d="M678 1008 l-3 -273 -187 -3 c-157 -2 -188 -5 -188 -17 0 -12 31 -15
188 -17 l187 -3 5 -272 5 -272 483 270 482 271 29 -31 c42 -45 90 -43 128 4
l28 36 114 -2 c99 -1 115 1 117 15 2 14 -12 16 -113 16 l-114 0 -33 35 c-44
46 -86 48 -127 4 l-29 -31 -67 37 c-38 21 -122 68 -188 105 -66 37 -250 141
-410 230 -159 89 -293 164 -297 167 -4 2 -9 -119 -10 -269z m312 55 c236 -132
612 -343 618 -348 1 -1 -165 -96 -370 -210 -205 -115 -403 -226 -439 -247 -36
-21 -69 -38 -75 -38 -5 0 -9 192 -9 495 0 436 2 495 15 490 8 -4 125 -67 260
-142z m792 -329 c9 -18 9 -30 1 -42 -14 -24 -63 -22 -79 3 -12 18 -11 24 2 43
21 31 61 29 76 -4z" stroke="black" stroke-width="30" />
</g>
</svg>
