<svg width="28" height="33" viewBox="0 0 28 33" fill="none" xmlns="http://www.w3.org/2000/svg">
<path d="M17.3975 4.175V15.05V5.625C17.3975 4.42378 18.3604 3.45 19.5481 3.45C20.7358 3.45 21.6987 4.42378 21.6987 5.625V15.05V9.975C21.6987 8.77378 22.6616 7.8 23.8494 7.8C25.0371 7.8 26 8.77378 26 9.975V22.3C26 27.1049 22.1485 31 17.3975 31H15.7812C13.5956 31 11.492 30.1587 9.89755 28.6469L2.78815 21.9063C1.76043 20.9319 1.73426 19.2907 2.73038 18.2832C3.70423 17.2984 5.28314 17.2984 6.25697 18.2832L8.79495 20.85V8.525C8.79495 7.32378 9.75782 6.35 10.9456 6.35C12.1333 6.35 13.0962 7.32378 13.0962 8.525V15.05V4.175C13.0962 2.97378 14.0591 2 15.2468 2C16.4346 2 17.3975 2.97378 17.3975 4.175Z" stroke="black" stroke-width="2.5" stroke-linecap="round" stroke-linejoin="round"/>
</svg>
