<?xml version="1.0" standalone="no"?>
<!DOCTYPE svg PUBLIC "-//W3C//DTD SVG 20010904//EN"
 "">
<svg version="1.0" xmlns="http://www.w3.org/2000/svg"
 width="484.000000pt" height="482.000000pt" viewBox="0 0 484.000000 482.000000"
 preserveAspectRatio="xMidYMid meet">

<g transform="translate(0.000000,482.000000) scale(0.100000,-0.100000)"
fill="#000000" stroke="none">
<path d="M1395 4358 c-45 -24 -45 -28 -45 -345 l0 -303 -348 0 -349 0 -21 -23
c-28 -29 -28 -76 -2 -105 21 -22 24 -22 370 -22 l350 0 0 -600 0 -600 -345 0
-346 0 -24 -25 c-35 -34 -34 -86 1 -114 26 -20 38 -21 370 -21 l344 0 0 -304
c0 -284 1 -305 19 -327 l19 -24 399 -3 c219 -2 475 2 568 7 152 9 184 14 305
50 115 33 333 127 350 150 3 4 23 17 45 30 110 64 311 259 396 386 101 151
207 421 223 570 4 33 9 77 12 98 l6 37 354 0 c301 0 360 2 385 15 56 30 61
103 8 130 -23 12 -91 15 -389 15 -281 0 -360 3 -360 13 0 52 -36 231 -66 326
-102 329 -328 620 -617 795 -43 26 -100 57 -125 68 -26 11 -65 28 -87 38 -71
32 -147 50 -320 75 -160 24 -190 25 -614 25 -304 -1 -452 -4 -466 -12z m1000
-163 c325 -42 514 -129 729 -335 157 -150 263 -314 332 -510 45 -131 64 -247
64 -396 0 -164 -14 -256 -60 -389 -70 -205 -177 -375 -318 -505 -160 -146
-322 -243 -497 -295 -172 -52 -198 -54 -682 -55 l-453 0 0 1245 0 1245 178 2
c97 2 267 5 377 6 147 3 234 -1 330 -13z"/>
<path d="M1245 1068 c-3 -7 -68 -199 -145 -426 l-140 -413 112 3 112 3 27 85
27 85 148 0 147 0 30 -88 29 -87 110 0 c84 0 109 3 106 13 -3 6 -67 198 -144
424 l-139 413 -138 0 c-101 0 -139 -3 -142 -12z m189 -342 c26 -79 46 -146 46
-150 0 -3 -43 -6 -96 -6 -73 0 -95 3 -91 13 2 6 24 74 47 150 24 75 45 137 46
137 2 0 23 -65 48 -144z"/>
<path d="M1900 655 l0 -425 105 0 105 0 2 246 3 246 169 -246 170 -246 88 0
88 0 0 425 0 425 -105 0 -105 0 -2 -242 -3 -243 -165 242 -165 242 -92 1 -93
0 0 -425z"/>
<path d="M2760 656 l0 -426 179 0 c205 0 262 8 347 50 75 37 126 91 167 178
26 56 31 80 35 169 10 214 -64 347 -233 425 -46 21 -66 23 -272 26 l-223 4 0
-426z m415 231 c77 -40 108 -107 108 -232 -1 -182 -61 -244 -235 -245 l-88 0
0 251 0 252 93 -5 c55 -3 104 -11 122 -21z"/>
</g>
</svg>
