<?xml version="1.0" standalone="no"?>
<!DOCTYPE svg PUBLIC "-//W3C//DTD SVG 20010904//EN"
 "http://www.w3.org/TR/2001/REC-SVG-20010904/DTD/svg10.dtd">
<svg version="1.0" xmlns="http://www.w3.org/2000/svg"
 width="240.000000pt" height="162.000000pt" viewBox="0 0 240.000000 162.000000"
 preserveAspectRatio="xMidYMid meet">

<g transform="translate(0.000000,162.000000) scale(0.100000,-0.100000)"
fill="#000000" stroke="none">
<path d="M749 1349 c35 -59 81 -156 81 -170 0 -5 -109 -10 -242 -11 -222 -3
-243 -4 -246 -20 -3 -17 14 -18 252 -18 l255 0 10 -37 c42 -163 42 -363 0
-525 l-10 -38 -254 0 c-220 0 -255 -2 -255 -15 0 -13 34 -15 245 -15 222 0
245 -2 245 -17 0 -9 -25 -63 -55 -121 l-56 -105 113 7 c216 14 380 58 516 138
79 46 225 194 306 311 l68 97 194 0 c187 0 194 1 194 20 0 19 -7 20 -194 20
l-195 0 -67 98 c-37 53 -110 140 -163 192 -171 171 -341 236 -670 257 l-103 6
31 -54z m304 -20 c181 -36 301 -99 422 -223 75 -77 205 -251 204 -276 0 -18
-71 -121 -155 -222 -153 -185 -353 -278 -657 -303 l-78 -7 34 69 c142 284 143
644 1 926 l-35 69 83 -7 c46 -3 127 -15 181 -26z"/>
</g>
</svg>
