<svg width="800" height="600" xmlns="http://www.w3.org/2000/svg">
 <g>
  <title>Layer 1</title>
  <path fill="none" stroke="#000" opacity="NaN" d="m-453.63411,-377.87599l18.0907,8.3969l-18.0907,-8.3969z" id="svg_13"/>
  <line opacity="0.99" fill="none" x1="570" y1="303" x2="713" y2="303" id="svg_22" stroke="#000" stroke-width="20"/>
  <g stroke="null" id="svg_14">
   <path stroke="#000" fill="#fff" stroke-width="20" opacity="NaN" d="m333.66862,283.78358" id="svg_5"/>
   <path stroke="#000" id="svg_2" d="m240,121.61329c0,0 74.85058,62.76785 88,184.99999" opacity="NaN" stroke-width="20" fill="#fff"/>
   <path stroke="#000" id="svg_4" d="m240.99999,472.61326c0,0 74,-57.67857 87,-170.00001" opacity="NaN" stroke-width="20" fill="#fff"/>
  </g>
  <g id="svg_18">
   <path fill="#fff" stroke="#000" stroke-width="20" opacity="NaN" d="m262.66862,284.17029" id="svg_15"/>
   <path stroke="#000" id="svg_16" d="m169,122c0,0 74.85058,62.76785 88,184.99999" opacity="NaN" stroke-width="20" fill="#fff"/>
   <path stroke="#000" id="svg_17" d="m169.99999,472.99997c0,0 74,-57.67857 87,-170.00001" opacity="NaN" stroke-width="20" fill="#fff"/>
  </g>
  <line fill="none" x1="87" y1="227.23715" x2="231" y2="227.23715" id="svg_1" stroke="#000" stroke-width="20"/>
  <line fill="none" opacity="NaN" x1="87" y1="390.23436" x2="231" y2="390.23436" id="svg_3" stroke="#000" stroke-width="20"/>
  <g stroke="null" id="svg_7">
   <path stroke="#000" fill="none" stroke-width="20" opacity="NaN" d="m251,122.90423c1.99769,-3.08261 247.71299,-12.33043 324.6239,174.16734" id="svg_51"/>
   <path stroke="#000" fill="none" stroke-width="20" opacity="NaN" d="m251.99893,472.63318c2.00359,3.0594 248.44447,12.23756 325.58246,-172.85542" id="svg_52"/>
  </g>
 </g>

</svg>