<svg width="31" height="31" viewBox="0 0 31 31" fill="none" xmlns="http://www.w3.org/2000/svg">
<path d="M30.9688 11.45C30.9688 10.5875 30.6313 9.7625 30.0125 9.14375L21.8563 0.9875C20.5813 -0.2875 18.5188 -0.2875 17.2438 0.9875L0.9875 17.2438C0.36875 17.8625 0.03125 18.6875 0.03125 19.55C0.03125 20.4125 0.36875 21.2375 0.9875 21.8563L9.14375 30.0125C9.78125 30.65 10.6063 30.9688 11.45 30.9688C11.525 30.9688 11.6188 30.9688 11.6938 30.95C11.7313 30.95 11.75 30.95 11.7875 30.95H26.7688C27.5375 30.95 28.175 30.3125 28.175 29.5437C28.175 28.775 27.5375 28.1375 26.7688 28.1375H15.6125L29.9937 13.7562C30.6125 13.1375 30.95 12.3125 30.95 11.45H30.9688ZM2.975 19.8687C2.8625 19.7563 2.84375 19.625 2.84375 19.55C2.84375 19.475 2.84375 19.3438 2.975 19.2312L10.1 12.1062L18.8938 20.9L11.7688 28.025C11.6 28.1938 11.3188 28.1938 11.1313 28.025L2.975 19.85V19.8687ZM28.025 11.7875L20.9 18.9125L12.1062 10.1188L19.2312 2.99375C19.4 2.825 19.6812 2.825 19.8687 2.99375L28.025 11.1687C28.1375 11.2812 28.1562 11.4125 28.1562 11.4875C28.1562 11.5625 28.1562 11.6937 28.025 11.8062V11.7875Z" fill="black"/>
</svg>
