<svg width="300" height="300" viewBox="0 0 300 300" fill="none" xmlns="http://www.w3.org/2000/svg">
<rect width="300" height="300" rx="30" fill="black"/>
<path
        d="M151.66 235C147.811 241.667 138.189 241.667 134.34 235L56.3975 100L56.2236 99.6865C52.6995 93.0751 57.4798 85.0001 65.0576 85H220.942C228.64 85.0001 233.452 93.3334 229.603 100L151.66 235Z" stroke="white" stroke-width="15"/>
<path
        d="M122 34C122 22.9543 130.954 14 142 14C153.046 14 162 22.9543 162 34C162 43.3191 155.626 51.1489 147 53.3691V85H137V53.3691C128.374 51.1489 122 43.3191 122 34ZM132 34C132 39.5228 136.477 44 142 44C147.523 44 152 39.5228 152 34C152 28.4772 147.523 24 142 24C136.477 24 132 28.4772 132 34Z" fill="white"  stroke="white" stroke-width="5"/>
<path
        d="M208 248C219.046 248 228 256.954 228 268C228 279.046 219.046 288 208 288C198.681 288 190.851 281.626 188.631 273H150V263H188.631C190.851 254.374 198.681 248 208 248ZM208 258C202.477 258 198 262.477 198 268C198 273.523 202.477 278 208 278C213.523 278 218 273.523 218 268C218 262.477 213.523 258 208 258Z" fill="white" stroke="white" stroke-width="5"/>
<path d="M143 243V267C143 267.552 143.448 268 144 268H160" stroke="white" stroke-width="15"/>
</svg>
